# xmcd CD database file
#
# Track frame offsets:
#	150
#	14899
#	30366
#	44257
#	63628
#	83479
#	100326
#	119718
#	133660
#	150799
#	156841
#	171333
#	189891
#	209979
#
# Disc length: 3043 seconds
#
# Revision: 0
# Processed by: cddbd v1.4PL0 Copyright (c) Steve Scherf et al.
# Submitted via: CDex 1.50beta10
#
DISCID=be0be10e
DTITLE=Juan Luis Guerra - Ni es lo mismo ni es igual
DYEAR=1998
DGENRE=Merengue
TTITLE0=Mi PC
TTITLE1=Vale la pena
TTITLE2=La hormiguita
TTITLE3=Me enmora de Ella
TTITLE4=El Niágara en bicicleta
TTITLE5=Palomita blanca
TTITLE6=Testimonio
TTITLE7=Amapola
TTITLE8=El primo
TTITLE9=Sobremesa
TTITLE10=Amor de conuco
TTITLE11=Como abeja al panal
TTITLE12=Estrellitas y duendes
TTITLE13=La bilirubina
EXTD=YEAR: 1998
EXTT0=
EXTT1=
EXTT2=
EXTT3=
EXTT4=
EXTT5=
EXTT6=
EXTT7=
EXTT8=
EXTT9=
EXTT10=
EXTT11=
EXTT12=
EXTT13=
PLAYORDER=
